<?xml version="1.0" encoding="UTF-8" standalone="no"?>
<!-- Created with Inkscape (http://www.inkscape.org/) -->

<svg
   width="122.06997mm"
   height="20.535795mm"
   viewBox="0 0 122.06997 20.535795"
   version="1.1"
   id="svg1"
   xml:space="preserve"
   xmlns="http://www.w3.org/2000/svg"
   xmlns:svg="http://www.w3.org/2000/svg"><defs
     id="defs1" /><g
     id="layer3"
     style="display:inline"
     transform="translate(-43.965019,-138.2321)"><path
       id="rect61"
       style="opacity:0.02;fill:none;fill-opacity:0;stroke:#87aade;stroke-miterlimit:5.58"
       d="m 89.93298,71.696434 h 1.548316 c 0.417945,0 0.754413,0.336469 0.754413,0.754414 v 4.973315 c 0,0.417945 -0.336468,0.754414 -0.754413,0.754414 H 89.93298 c -0.417945,0 -0.754414,-0.336469 -0.754414,-0.754414 v -4.973315 c 0,-0.417945 0.336469,-0.754414 0.754414,-0.754414 z" /><g
       id="g7"><g
         id="text2"
         style="font-weight:bold;font-size:17.6389px;line-height:0;font-family:'Exo 2';-inkscape-font-specification:'Exo 2 Bold';font-variant-caps:small-caps;letter-spacing:1.32292px;word-spacing:132.292px;fill:#2f5790;stroke-width:2;stroke-linecap:square;stroke-miterlimit:5.58"
         aria-label="NOVATEXH"><path
           d="m 54.248499,142.4234 v 11.2007 q 0,0.97014 -0.970139,0.97014 h -1.481668 q -0.440972,0 -0.670278,-0.19403 -0.211667,-0.21167 -0.423334,-0.61736 l -3.36903,-6.40292 q -0.211667,-0.4057 -0.423333,-0.88195 -0.194028,-0.49389 -0.33514,-0.9525 H 46.38155 q 0.05292,0.45861 0.08819,0.9525 0.03528,0.49389 0.03528,0.9525 v 7.14376 h -2.54 v -11.2007 q 0,-0.97014 0.97014,-0.97014 h 1.464028 q 0.423334,0 0.635001,0.21166 0.229306,0.19403 0.440972,0.58209 l 3.263197,6.20889 q 0.229306,0.4057 0.458611,0.89958 0.229306,0.49389 0.423334,1.02306 h 0.211667 q -0.03528,-0.52917 -0.07056,-1.02306 -0.03528,-0.51152 -0.03528,-1.00541 v -6.89681 z m 8.607788,-0.24695 q 1.44639,0 2.451808,0.3175 1.005417,0.29986 1.60514,1.02306 0.617361,0.70555 0.899584,1.94028 0.282222,1.21708 0.282222,3.05153 0,1.8168 -0.282222,3.05153 -0.282223,1.21708 -0.899584,1.94028 -0.599723,0.72319 -1.60514,1.02305 -1.005418,0.29986 -2.451808,0.29986 -1.446389,0 -2.451807,-0.29986 -1.005417,-0.29986 -1.622779,-1.02305 -0.617361,-0.7232 -0.899584,-1.94028 -0.264583,-1.23473 -0.264583,-3.05153 0,-1.83445 0.264583,-3.05153 0.282223,-1.23473 0.899584,-1.94028 0.617362,-0.7232 1.622779,-1.02306 1.005418,-0.3175 2.451807,-0.3175 z m 0,2.11667 q -0.934861,0 -1.464028,0.37042 -0.511528,0.37041 -0.740834,1.28764 -0.211667,0.91722 -0.211667,2.55764 0,1.62278 0.211667,2.54 0.229306,0.91722 0.740834,1.28764 0.529167,0.37042 1.464028,0.37042 0.917223,0 1.44639,-0.37042 0.529167,-0.37042 0.740834,-1.28764 0.211667,-0.91722 0.211667,-2.54 0,-1.64042 -0.211667,-2.55764 -0.211667,-0.91723 -0.740834,-1.28764 -0.529167,-0.37042 -1.44639,-0.37042 z m 18.397383,-1.86972 -3.316114,11.43 q -0.08819,0.3175 -0.352778,0.52917 -0.246944,0.21167 -0.599722,0.21167 H 74.51561 q -0.352778,0 -0.617362,-0.21167 -0.246944,-0.21167 -0.335139,-0.52917 l -3.316113,-11.43 h 2.769307 l 2.222502,8.78417 q 0.07055,0.33514 0.141111,0.68792 0.08819,0.33514 0.141111,0.67027 h 0.458612 q 0.05292,-0.33513 0.123472,-0.68791 0.08819,-0.35278 0.176389,-0.68792 l 2.204862,-8.76653 z m 7.866954,0 q 0.335139,0 0.582084,0.19402 0.264583,0.17639 0.352778,0.51153 l 3.52778,11.46529 h -2.751669 l -2.487085,-8.96056 q -0.07055,-0.28223 -0.141111,-0.58209 -0.07055,-0.3175 -0.123472,-0.59972 h -0.47625 q -0.05292,0.28222 -0.123473,0.59972 -0.05292,0.29986 -0.141111,0.58209 l -2.487085,8.96056 h -2.751668 l 3.52778,-11.46529 q 0.08819,-0.33514 0.335139,-0.51153 0.264583,-0.19402 0.599722,-0.19402 z m 1.869724,6.93208 v 2.01084 h -6.314727 v -2.01084 z m 9.560272,-6.93208 v 12.17084 H 97.869506 V 142.4234 Z m 3.66889,0 v 2.11666 H 94.200614 v -2.11666 z m 5.36222,-0.0529 q 0.97014,0 1.97556,0.0176 1.00541,0 1.97555,0.0353 0.97014,0.0353 1.81681,0.12347 l -0.12347,1.95792 h -4.67431 q -0.44097,0 -0.67028,0.2293 -0.21167,0.21167 -0.21167,0.67028 v 6.20889 q 0,0.44098 0.21167,0.67028 0.22931,0.22931 0.67028,0.22931 h 4.67431 l 0.12347,1.95792 q -0.84667,0.0706 -1.81681,0.10583 -0.97014,0.0353 -1.97555,0.0353 -1.00542,0.0176 -1.97556,0.0176 -1.16417,0 -1.88736,-0.67028 -0.70556,-0.67028 -0.7232,-1.76389 v -7.37306 q 0.0176,-1.11125 0.7232,-1.78153 0.72319,-0.67028 1.88736,-0.67028 z m -2.29306,4.93889 h 7.28487 v 1.905 h -7.28487 z"
           id="path6" /><path
           style="fill:#87aade;fill-opacity:0.909804"
           d="m 128.31423,142.4234 -2.99862,5.90903 3.22792,6.26181 h -2.73403 l -3.05153,-6.26181 2.82223,-5.90903 z m -7.81404,0 2.82223,5.90903 -3.03389,6.26181 h -2.75167 l 3.22792,-6.26181 -2.98098,-5.90903 z m 3.84528,5.06236 v 1.65806 h -2.7693 v -1.65806 z m 9.63083,-5.06236 v 12.17084 h -2.69875 V 142.4234 Z m 4.5332,4.67431 v 2.01083 h -4.67431 v -2.01083 z m 2.48708,-4.67431 v 12.17084 h -2.68111 V 142.4234 Z"
           id="path7" /></g><g
         id="g5"
         transform="translate(15.064303,17.644825)"><path
           id="path36"
           style="fill:none;stroke:#2f5790;stroke-width:1.00181;stroke-miterlimit:5.58;stroke-dasharray:none;stroke-opacity:1"
           d="m 140.70318,140.62217 c -0.55192,0 -9.28366,-4.46056 -9.55962,-4.88349 -0.27596,-0.42292 -0.27596,-9.34408 0,-9.76701 0.27596,-0.42292 9.0077,-4.88349 9.55962,-4.88349 0.55193,0 9.28366,4.46057 9.55962,4.88349 0.27597,0.42293 0.27597,9.34409 0,9.76701 -0.27596,0.42293 -9.00769,4.88349 -9.55962,4.88349 z" /><path
           style="fill:#21457b;fill-opacity:0.996078;stroke:#87aade;stroke-width:0.216359;stroke-miterlimit:0;stroke-opacity:1;paint-order:fill markers stroke"
           d="M 140.22539,128.65928 Z"
           id="path25" /><path
           style="fill:#21457b;fill-opacity:0.996078;stroke:#87aade;stroke-width:0.216359;stroke-miterlimit:0;stroke-opacity:1;paint-order:fill markers stroke"
           d="M 140.22539,128.65928 Z"
           id="path26" /><path
           id="path29"
           style="fill:none;stroke:#87aade;stroke-width:0.211082;stroke-miterlimit:0"
           d="m 139.16098,124.34371 a 0.38940349,0.39011908 0 0 1 -0.3894,0.39012 0.38940349,0.39011908 0 0 1 -0.38941,-0.39012 0.38940349,0.39011908 0 0 1 0.38941,-0.39012 0.38940349,0.39011908 0 0 1 0.3894,0.39012 z" /><path
           id="path29-2"
           style="fill:none;stroke:#87aade;stroke-width:0.211082;stroke-miterlimit:0"
           d="m 137.20048,126.70565 a 0.38940349,0.39011908 0 0 1 -0.3894,0.39012 0.38940349,0.39011908 0 0 1 -0.3894,-0.39012 0.38940349,0.39011908 0 0 1 0.3894,-0.39012 0.38940349,0.39011908 0 0 1 0.3894,0.39012 z" /><path
           id="path29-2-7"
           style="fill:none;stroke:#87aade;stroke-width:0.211082;stroke-miterlimit:0"
           d="m 134.85676,127.47678 a 0.38940349,0.39011908 0 0 1 -0.3894,0.39012 0.38940349,0.39011908 0 0 1 -0.3894,-0.39012 0.38940349,0.39011908 0 0 1 0.3894,-0.39012 0.38940349,0.39011908 0 0 1 0.3894,0.39012 z" /><path
           id="path29-2-7-2"
           style="fill:none;stroke:#87aade;stroke-width:0.211082;stroke-miterlimit:0"
           d="m 136.72197,130.12842 a 0.38940349,0.39011908 0 0 1 -0.3894,0.39012 0.38940349,0.39011908 0 0 1 -0.38941,-0.39012 0.38940349,0.39011908 0 0 1 0.38941,-0.39012 0.38940349,0.39011908 0 0 1 0.3894,0.39012 z" /><path
           id="path29-2-7-2-3"
           style="fill:none;stroke:#87aade;stroke-width:0.211082;stroke-miterlimit:0"
           d="m 134.62878,132.34094 a 0.38940349,0.39011908 0 0 1 -0.3894,0.39012 0.38940349,0.39011908 0 0 1 -0.3894,-0.39012 0.38940349,0.39011908 0 0 1 0.3894,-0.39012 0.38940349,0.39011908 0 0 1 0.3894,0.39012 z" /><path
           id="path29-2-7-2-3-4"
           style="fill:none;stroke:#87aade;stroke-width:0.211082;stroke-miterlimit:0"
           d="m 136.97848,134.3116 a 0.38940349,0.39011908 0 0 1 -0.3894,0.39012 0.38940349,0.39011908 0 0 1 -0.3894,-0.39012 0.38940349,0.39011908 0 0 1 0.3894,-0.39012 0.38940349,0.39011908 0 0 1 0.3894,0.39012 z" /><path
           id="path29-1"
           style="fill:none;stroke:#87aade;stroke-width:0.211082;stroke-miterlimit:0"
           d="m 141.38252,126.44156 a 0.38940349,0.39011908 0 0 1 -0.3894,0.39012 0.38940349,0.39011908 0 0 1 -0.38941,-0.39012 0.38940349,0.39011908 0 0 1 0.38941,-0.39012 0.38940349,0.39011908 0 0 1 0.3894,0.39012 z" /><path
           id="path29-1-7"
           style="fill:none;stroke:#87aade;stroke-width:0.211082;stroke-miterlimit:0"
           d="m 144.02423,124.57407 a 0.38940349,0.39011908 0 0 1 -0.3894,0.39012 0.38940349,0.39011908 0 0 1 -0.38941,-0.39012 0.38940349,0.39011908 0 0 1 0.38941,-0.39012 0.38940349,0.39011908 0 0 1 0.3894,0.39012 z" /><path
           id="path29-1-7-9"
           style="fill:none;stroke:#87aade;stroke-width:0.211082;stroke-miterlimit:0"
           d="m 145.25478,127.14707 a 0.38940349,0.39011908 0 0 1 -0.38941,0.39012 0.38940349,0.39011908 0 0 1 -0.3894,-0.39012 0.38940349,0.39011908 0 0 1 0.3894,-0.39012 0.38940349,0.39011908 0 0 1 0.38941,0.39012 z" /><path
           id="path29-1-7-9-6"
           style="fill:none;stroke:#87aade;stroke-width:0.211082;stroke-miterlimit:0"
           d="m 147.61565,129.10303 a 0.38940349,0.39011908 0 0 1 -0.38941,0.39012 0.38940349,0.39011908 0 0 1 -0.3894,-0.39012 0.38940349,0.39011908 0 0 1 0.3894,-0.39012 0.38940349,0.39011908 0 0 1 0.38941,0.39012 z" /><path
           id="path29-1-7-9-6-6"
           style="fill:none;stroke:#87aade;stroke-width:0.211082;stroke-miterlimit:0"
           d="m 145.51636,131.31454 a 0.38940349,0.39011908 0 0 1 -0.38941,0.39012 0.38940349,0.39011908 0 0 1 -0.3894,-0.39012 0.38940349,0.39011908 0 0 1 0.3894,-0.39011 0.38940349,0.39011908 0 0 1 0.38941,0.39011 z" /><path
           id="path29-1-7-9-6-6-0"
           style="fill:none;stroke:#87aade;stroke-width:0.211082;stroke-miterlimit:0"
           d="m 147.38469,133.96773 a 0.38940349,0.39011908 0 0 1 -0.3894,0.39012 0.38940349,0.39011908 0 0 1 -0.38941,-0.39012 0.38940349,0.39011908 0 0 1 0.38941,-0.39012 0.38940349,0.39011908 0 0 1 0.3894,0.39012 z" /><path
           id="path29-1-7-9-6-6-0-9"
           style="fill:none;stroke:#87aade;stroke-width:0.211082;stroke-miterlimit:0"
           d="m 144.52026,134.98244 a 0.38940349,0.39011908 0 0 1 -0.3894,0.39012 0.38940349,0.39011908 0 0 1 -0.3894,-0.39012 0.38940349,0.39011908 0 0 1 0.3894,-0.39012 0.38940349,0.39011908 0 0 1 0.3894,0.39012 z" /><path
           id="path29-1-7-9-6-6-0-9-0"
           style="fill:none;stroke:#87aade;stroke-width:0.211082;stroke-miterlimit:0"
           d="m 142.55679,137.35042 a 0.38940349,0.39011908 0 0 1 -0.3894,0.39012 0.38940349,0.39011908 0 0 1 -0.3894,-0.39012 0.38940349,0.39011908 0 0 1 0.3894,-0.39012 0.38940349,0.39011908 0 0 1 0.3894,0.39012 z" /><path
           id="path29-1-7-9-6-6-0-9-0-4"
           style="fill:none;stroke:#87aade;stroke-width:0.211082;stroke-miterlimit:0"
           d="m 140.35837,135.25623 a 0.38940349,0.39011908 0 0 1 -0.38941,0.39011 0.38940349,0.39011908 0 0 1 -0.3894,-0.39011 0.38940349,0.39011908 0 0 1 0.3894,-0.39012 0.38940349,0.39011908 0 0 1 0.38941,0.39012 z" /><path
           id="path29-1-7-9-6-6-0-9-0-4-8"
           style="fill:none;stroke:#87aade;stroke-width:0.211082;stroke-miterlimit:0"
           d="m 137.70102,137.12888 a 0.38940349,0.39011908 0 0 1 -0.38941,0.39011 0.38940349,0.39011908 0 0 1 -0.3894,-0.39011 0.38940349,0.39011908 0 0 1 0.3894,-0.39012 0.38940349,0.39011908 0 0 1 0.38941,0.39012 z" /><path
           id="rect29"
           style="fill:none;stroke:#87aade;stroke-width:0.316622;stroke-miterlimit:0"
           d="m 138.87214,128.70087 h 3.68435 c 0.19008,0 0.34311,0.15302 0.34311,0.3431 v 3.69237 c 0,0.19008 -0.15303,0.34311 -0.34311,0.34311 h -3.68435 c -0.19008,0 -0.3431,-0.15303 -0.3431,-0.34311 v -3.69237 c 0,-0.19008 0.15302,-0.3431 0.3431,-0.3431 z" /><path
           style="fill:none;fill-opacity:1;stroke:#87aade;stroke-width:0.267467;stroke-linejoin:miter;stroke-miterlimit:5.58;stroke-dasharray:none;stroke-opacity:1;paint-order:normal"
           d="m 140.98767,128.70086 0.0109,-1.88217"
           id="path30" /><path
           style="fill:none;fill-opacity:1;stroke:#87aade;stroke-width:0.255785;stroke-linejoin:miter;stroke-miterlimit:5.58;stroke-dasharray:none;stroke-opacity:1;paint-order:normal"
           d="m 143.00719,131.31455 h 1.64864"
           id="path30-6" /><path
           style="fill:none;fill-opacity:1;stroke:#87aade;stroke-width:0.255785;stroke-linejoin:miter;stroke-miterlimit:5.58;stroke-dasharray:none;stroke-opacity:1;paint-order:normal"
           d="m 139.97933,133.13766 v 1.65167"
           id="path30-6-7" /><path
           style="fill:none;fill-opacity:1;stroke:#87aade;stroke-width:0.255805;stroke-linejoin:miter;stroke-miterlimit:5.58;stroke-dasharray:none;stroke-opacity:1;paint-order:normal"
           d="m 138.41747,130.12842 h -1.6489"
           id="path30-6-7-0" /><path
           style="fill:none;fill-opacity:1;stroke:#87aade;stroke-width:0.263852;stroke-linejoin:miter;stroke-miterlimit:5.58;stroke-dasharray:none;stroke-opacity:1;paint-order:normal"
           d="M 142.03772,128.62816 V 126.19 l 1.27898,-1.30208 -0.005,-0.0156"
           id="path31" /><path
           style="fill:none;fill-opacity:1;stroke:#87aade;stroke-width:0.263852;stroke-linecap:square;stroke-linejoin:miter;stroke-miterlimit:5.58;stroke-dasharray:none;stroke-opacity:1;paint-order:normal"
           d="m 142.92835,129.33367 1.22202,0.005 0.71457,-0.90783 -0.0103,-0.85076"
           id="path32" /><path
           style="fill:none;fill-opacity:1;stroke:#87aade;stroke-width:0.263852;stroke-linecap:square;stroke-linejoin:miter;stroke-miterlimit:5.58;stroke-dasharray:none;stroke-opacity:1;paint-order:normal"
           d="m 141.95389,133.0521 -0.005,1.22427 0.90616,0.71588 0.8492,-0.0104"
           id="path32-0" /><path
           style="fill:none;fill-opacity:1;stroke:#87aade;stroke-width:0.263852;stroke-linecap:square;stroke-linejoin:miter;stroke-miterlimit:5.58;stroke-dasharray:none;stroke-opacity:1;paint-order:normal"
           d="m 138.53085,132.10804 -1.22203,-0.005 -0.71457,0.90782 0.0104,0.85077"
           id="path32-1" /><path
           style="fill:none;fill-opacity:1;stroke:#87aade;stroke-width:0.263852;stroke-linecap:square;stroke-linejoin:miter;stroke-miterlimit:5.58;stroke-dasharray:none;stroke-opacity:1;paint-order:normal"
           d="m 139.02402,128.64916 0.005,-1.22426 -0.90616,-0.71589 -0.8492,0.0104"
           id="path32-1-9" /><path
           style="fill:none;fill-opacity:1;stroke:#87aade;stroke-width:0.250809;stroke-linecap:square;stroke-linejoin:miter;stroke-miterlimit:5.58;stroke-dasharray:none;stroke-opacity:1;paint-order:normal"
           d="m 138.9162,133.07209 -0.0104,2.44338 -1.21187,1.21924"
           id="path33" /><path
           style="fill:none;fill-opacity:1;stroke:#87aade;stroke-width:0.250809;stroke-linecap:square;stroke-linejoin:miter;stroke-miterlimit:5.58;stroke-dasharray:none;stroke-opacity:1;paint-order:normal"
           d="m 142.96241,132.37717 2.4389,0.0104 1.21701,1.21409"
           id="path33-7" /><path
           style="fill:none;fill-opacity:1;stroke:#87aade;stroke-width:0.263852;stroke-linecap:square;stroke-linejoin:miter;stroke-miterlimit:5.58;stroke-dasharray:none;stroke-opacity:1;paint-order:normal"
           d="m 138.50819,129.05589 h -2.46049 l -1.27418,-1.27652"
           id="path34" /><path
           style="fill:none;fill-opacity:1;stroke:#87aade;stroke-width:0.263852;stroke-linecap:butt;stroke-linejoin:miter;stroke-miterlimit:5.58;stroke-dasharray:none;stroke-opacity:1;paint-order:normal"
           d="m 141.10567,133.06872 v 2.27217 l 1.08739,0.79889 v 0.75738"
           id="path35" /><path
           style="fill:none;fill-opacity:1;stroke:#87aade;stroke-width:0.263852;stroke-linecap:butt;stroke-linejoin:miter;stroke-miterlimit:5.58;stroke-dasharray:none;stroke-opacity:1;paint-order:normal"
           d="m 142.98587,130.17912 h 2.26799 l 0.79743,-1.08939 h 0.75599"
           id="path35-0" /><path
           style="fill:none;fill-opacity:1;stroke:#87aade;stroke-width:0.263852;stroke-linecap:butt;stroke-linejoin:miter;stroke-miterlimit:5.58;stroke-dasharray:none;stroke-opacity:1;paint-order:normal"
           d="m 139.86451,128.61987 v -2.27216 l -1.0874,-0.79889 v -0.75738"
           id="path35-9" /><path
           style="fill:none;fill-opacity:1;stroke:#87aade;stroke-width:0.263852;stroke-linecap:butt;stroke-linejoin:miter;stroke-miterlimit:5.58;stroke-dasharray:none;stroke-opacity:1;paint-order:normal"
           d="m 138.48995,131.25304 h -2.26799 l -0.79742,1.08939 h -0.756"
           id="path35-9-2" /><path
           style="fill:#21457b;fill-opacity:0.996078;stroke:#87aade;stroke-width:0.216359;stroke-miterlimit:0;stroke-opacity:1;paint-order:fill markers stroke"
           d="M 140.16615,128.67553 Z"
           id="path25-3" /><path
           style="fill:#21457b;fill-opacity:0.996078;stroke:#87aade;stroke-width:0.216359;stroke-miterlimit:0;stroke-opacity:1;paint-order:fill markers stroke"
           d="M 140.16615,128.67553 Z"
           id="path26-5" /><path
           id="path29-12"
           style="fill:none;stroke:#87aade;stroke-width:0.211082;stroke-miterlimit:0"
           d="m 139.10174,124.35996 a 0.38940349,0.39011908 0 0 1 -0.3894,0.39012 0.38940349,0.39011908 0 0 1 -0.3894,-0.39012 0.38940349,0.39011908 0 0 1 0.3894,-0.39012 0.38940349,0.39011908 0 0 1 0.3894,0.39012 z" /><path
           id="path29-2-0"
           style="fill:none;stroke:#87aade;stroke-width:0.211082;stroke-miterlimit:0"
           d="m 137.14123,126.7219 a 0.38940349,0.39011908 0 0 1 -0.3894,0.39012 0.38940349,0.39011908 0 0 1 -0.3894,-0.39012 0.38940349,0.39011908 0 0 1 0.3894,-0.39012 0.38940349,0.39011908 0 0 1 0.3894,0.39012 z" /><path
           id="path29-2-7-1"
           style="fill:none;stroke:#87aade;stroke-width:0.211082;stroke-miterlimit:0"
           d="m 134.79752,127.49303 a 0.38940349,0.39011908 0 0 1 -0.38941,0.39012 0.38940349,0.39011908 0 0 1 -0.3894,-0.39012 0.38940349,0.39011908 0 0 1 0.3894,-0.39012 0.38940349,0.39011908 0 0 1 0.38941,0.39012 z" /><path
           id="path29-2-7-2-6"
           style="fill:none;stroke:#87aade;stroke-width:0.211082;stroke-miterlimit:0"
           d="m 136.66272,130.14467 a 0.38940349,0.39011908 0 0 1 -0.3894,0.39012 0.38940349,0.39011908 0 0 1 -0.38941,-0.39012 0.38940349,0.39011908 0 0 1 0.38941,-0.39012 0.38940349,0.39011908 0 0 1 0.3894,0.39012 z" /><path
           id="path29-2-7-2-3-40"
           style="fill:none;stroke:#87aade;stroke-width:0.211082;stroke-miterlimit:0"
           d="m 134.56953,132.35718 a 0.38940349,0.39011908 0 0 1 -0.3894,0.39012 0.38940349,0.39011908 0 0 1 -0.3894,-0.39012 0.38940349,0.39011908 0 0 1 0.3894,-0.39012 0.38940349,0.39011908 0 0 1 0.3894,0.39012 z" /><path
           id="path29-2-7-2-3-4-6"
           style="fill:none;stroke:#87aade;stroke-width:0.211082;stroke-miterlimit:0"
           d="m 136.91925,134.32784 a 0.38940349,0.39011908 0 0 1 -0.3894,0.39011 0.38940349,0.39011908 0 0 1 -0.38941,-0.39011 0.38940349,0.39011908 0 0 1 0.38941,-0.39012 0.38940349,0.39011908 0 0 1 0.3894,0.39012 z" /><path
           id="path29-1-1"
           style="fill:none;stroke:#87aade;stroke-width:0.211082;stroke-miterlimit:0"
           d="m 141.32326,126.45781 a 0.38940349,0.39011908 0 0 1 -0.38941,0.39012 0.38940349,0.39011908 0 0 1 -0.3894,-0.39012 0.38940349,0.39011908 0 0 1 0.3894,-0.39012 0.38940349,0.39011908 0 0 1 0.38941,0.39012 z" /><path
           id="path29-1-7-8"
           style="fill:none;stroke:#87aade;stroke-width:0.211082;stroke-miterlimit:0"
           d="m 143.96498,124.59031 a 0.38940349,0.39011908 0 0 1 -0.3894,0.39012 0.38940349,0.39011908 0 0 1 -0.38941,-0.39012 0.38940349,0.39011908 0 0 1 0.38941,-0.39012 0.38940349,0.39011908 0 0 1 0.3894,0.39012 z" /><path
           id="path29-1-7-9-9"
           style="fill:none;stroke:#87aade;stroke-width:0.211082;stroke-miterlimit:0"
           d="m 145.19551,127.16332 a 0.38940349,0.39011908 0 0 1 -0.3894,0.39012 0.38940349,0.39011908 0 0 1 -0.38941,-0.39012 0.38940349,0.39011908 0 0 1 0.38941,-0.39012 0.38940349,0.39011908 0 0 1 0.3894,0.39012 z" /><path
           id="path29-1-7-9-6-8"
           style="fill:none;stroke:#87aade;stroke-width:0.211082;stroke-miterlimit:0"
           d="m 147.5564,129.11926 a 0.38940349,0.39011908 0 0 1 -0.38941,0.39012 0.38940349,0.39011908 0 0 1 -0.3894,-0.39012 0.38940349,0.39011908 0 0 1 0.3894,-0.39012 0.38940349,0.39011908 0 0 1 0.38941,0.39012 z" /><path
           id="path29-1-7-9-6-6-4"
           style="fill:none;stroke:#87aade;stroke-width:0.211082;stroke-miterlimit:0"
           d="m 145.45711,131.3308 a 0.38940349,0.39011908 0 0 1 -0.38941,0.39011 0.38940349,0.39011908 0 0 1 -0.3894,-0.39011 0.38940349,0.39011908 0 0 1 0.3894,-0.39012 0.38940349,0.39011908 0 0 1 0.38941,0.39012 z" /><path
           id="path29-1-7-9-6-6-0-1"
           style="fill:none;stroke:#87aade;stroke-width:0.211082;stroke-miterlimit:0"
           d="m 147.32544,133.98398 a 0.38940349,0.39011908 0 0 1 -0.3894,0.39012 0.38940349,0.39011908 0 0 1 -0.38941,-0.39012 0.38940349,0.39011908 0 0 1 0.38941,-0.39012 0.38940349,0.39011908 0 0 1 0.3894,0.39012 z" /><path
           id="path29-1-7-9-6-6-0-9-4"
           style="fill:none;stroke:#87aade;stroke-width:0.211082;stroke-miterlimit:0"
           d="m 144.46101,134.99869 a 0.38940349,0.39011908 0 0 1 -0.3894,0.39012 0.38940349,0.39011908 0 0 1 -0.3894,-0.39012 0.38940349,0.39011908 0 0 1 0.3894,-0.39012 0.38940349,0.39011908 0 0 1 0.3894,0.39012 z" /><path
           id="path29-1-7-9-6-6-0-9-0-3"
           style="fill:none;stroke:#87aade;stroke-width:0.211082;stroke-miterlimit:0"
           d="m 142.49756,137.36665 a 0.38940349,0.39011908 0 0 1 -0.38941,0.39012 0.38940349,0.39011908 0 0 1 -0.3894,-0.39012 0.38940349,0.39011908 0 0 1 0.3894,-0.39012 0.38940349,0.39011908 0 0 1 0.38941,0.39012 z" /><path
           id="path29-1-7-9-6-6-0-9-0-4-9"
           style="fill:none;stroke:#87aade;stroke-width:0.211082;stroke-miterlimit:0"
           d="m 140.29912,135.27248 a 0.38940349,0.39011908 0 0 1 -0.38941,0.39012 0.38940349,0.39011908 0 0 1 -0.3894,-0.39012 0.38940349,0.39011908 0 0 1 0.3894,-0.39012 0.38940349,0.39011908 0 0 1 0.38941,0.39012 z" /><path
           id="path29-1-7-9-6-6-0-9-0-4-8-8"
           style="fill:none;stroke:#87aade;stroke-width:0.211082;stroke-miterlimit:0"
           d="m 137.64177,137.14513 a 0.38940349,0.39011908 0 0 1 -0.3894,0.39012 0.38940349,0.39011908 0 0 1 -0.38941,-0.39012 0.38940349,0.39011908 0 0 1 0.38941,-0.39012 0.38940349,0.39011908 0 0 1 0.3894,0.39012 z" /><path
           id="rect29-8"
           style="fill:#2f5790;stroke:#87aade;stroke-width:0.316622;stroke-miterlimit:0"
           d="m 138.81289,128.71712 h 3.68435 c 0.19008,0 0.34311,0.15302 0.34311,0.3431 v 3.69237 c 0,0.19008 -0.15303,0.34311 -0.34311,0.34311 h -3.68435 c -0.19008,0 -0.3431,-0.15303 -0.3431,-0.34311 v -3.69237 c 0,-0.19008 0.15302,-0.3431 0.3431,-0.3431 z" /><path
           style="fill:none;fill-opacity:1;stroke:#87aade;stroke-width:0.267467;stroke-linejoin:miter;stroke-miterlimit:5.58;stroke-dasharray:none;stroke-opacity:1;paint-order:normal"
           d="m 140.92842,128.71711 0.0109,-1.88218"
           id="path30-0" /><path
           style="fill:none;fill-opacity:1;stroke:#87aade;stroke-width:0.255785;stroke-linejoin:miter;stroke-miterlimit:5.58;stroke-dasharray:none;stroke-opacity:1;paint-order:normal"
           d="m 142.94794,131.3308 h 1.64864"
           id="path30-6-8" /><path
           style="fill:none;fill-opacity:1;stroke:#87aade;stroke-width:0.255785;stroke-linejoin:miter;stroke-miterlimit:5.58;stroke-dasharray:none;stroke-opacity:1;paint-order:normal"
           d="m 139.92008,133.15391 v 1.65166"
           id="path30-6-7-7" /><path
           style="fill:none;fill-opacity:1;stroke:#87aade;stroke-width:0.255805;stroke-linejoin:miter;stroke-miterlimit:5.58;stroke-dasharray:none;stroke-opacity:1;paint-order:normal"
           d="m 138.35822,130.14467 h -1.64889"
           id="path30-6-7-0-7" /><path
           style="fill:none;fill-opacity:1;stroke:#87aade;stroke-width:0.263852;stroke-linejoin:miter;stroke-miterlimit:5.58;stroke-dasharray:none;stroke-opacity:1;paint-order:normal"
           d="m 141.97847,128.6444 v -2.43816 l 1.27898,-1.30208 -0.005,-0.0156"
           id="path31-8" /><path
           style="fill:none;fill-opacity:1;stroke:#87aade;stroke-width:0.263852;stroke-linecap:square;stroke-linejoin:miter;stroke-miterlimit:5.58;stroke-dasharray:none;stroke-opacity:1;paint-order:normal"
           d="m 142.8691,129.34992 1.22202,0.005 0.71457,-0.90783 -0.0103,-0.85076"
           id="path32-3" /><path
           style="fill:none;fill-opacity:1;stroke:#87aade;stroke-width:0.263852;stroke-linecap:square;stroke-linejoin:miter;stroke-miterlimit:5.58;stroke-dasharray:none;stroke-opacity:1;paint-order:normal"
           d="m 141.89463,133.06834 -0.005,1.22427 0.90616,0.71588 0.84921,-0.0104"
           id="path32-0-8" /><path
           style="fill:none;fill-opacity:1;stroke:#87aade;stroke-width:0.263852;stroke-linecap:square;stroke-linejoin:miter;stroke-miterlimit:5.58;stroke-dasharray:none;stroke-opacity:1;paint-order:normal"
           d="m 138.4716,132.12429 -1.22203,-0.005 -0.71457,0.90782 0.0104,0.85076"
           id="path32-1-3" /><path
           style="fill:none;fill-opacity:1;stroke:#87aade;stroke-width:0.263852;stroke-linecap:square;stroke-linejoin:miter;stroke-miterlimit:5.58;stroke-dasharray:none;stroke-opacity:1;paint-order:normal"
           d="m 138.96477,128.6654 0.005,-1.22426 -0.90616,-0.71589 -0.8492,0.0104"
           id="path32-1-9-7" /><path
           style="fill:none;fill-opacity:1;stroke:#87aade;stroke-width:0.250809;stroke-linecap:square;stroke-linejoin:miter;stroke-miterlimit:5.58;stroke-dasharray:none;stroke-opacity:1;paint-order:normal"
           d="m 138.85695,133.08833 -0.0104,2.44338 -1.21187,1.21925"
           id="path33-1" /><path
           style="fill:none;fill-opacity:1;stroke:#87aade;stroke-width:0.250809;stroke-linecap:square;stroke-linejoin:miter;stroke-miterlimit:5.58;stroke-dasharray:none;stroke-opacity:1;paint-order:normal"
           d="m 142.90316,132.39341 2.43891,0.0104 1.217,1.21408"
           id="path33-7-0" /><path
           style="fill:none;fill-opacity:1;stroke:#87aade;stroke-width:0.263852;stroke-linecap:square;stroke-linejoin:miter;stroke-miterlimit:5.58;stroke-dasharray:none;stroke-opacity:1;paint-order:normal"
           d="m 138.44894,129.07214 h -2.46049 l -1.27418,-1.27653"
           id="path34-7" /><path
           style="fill:none;fill-opacity:1;stroke:#87aade;stroke-width:0.263852;stroke-linecap:butt;stroke-linejoin:miter;stroke-miterlimit:5.58;stroke-dasharray:none;stroke-opacity:1;paint-order:normal"
           d="m 141.04642,133.08497 v 2.27216 l 1.08739,0.79889 v 0.75739"
           id="path35-3" /><path
           style="fill:none;fill-opacity:1;stroke:#87aade;stroke-width:0.263852;stroke-linecap:butt;stroke-linejoin:miter;stroke-miterlimit:5.58;stroke-dasharray:none;stroke-opacity:1;paint-order:normal"
           d="m 142.92662,130.19536 h 2.26799 l 0.79743,-1.08939 h 0.75599"
           id="path35-0-4" /><path
           style="fill:none;fill-opacity:1;stroke:#87aade;stroke-width:0.263852;stroke-linecap:butt;stroke-linejoin:miter;stroke-miterlimit:5.58;stroke-dasharray:none;stroke-opacity:1;paint-order:normal"
           d="m 139.80526,128.63612 v -2.27216 l -1.0874,-0.79889 v -0.75739"
           id="path35-9-9" /><path
           style="fill:none;fill-opacity:1;stroke:#87aade;stroke-width:0.263852;stroke-linecap:butt;stroke-linejoin:miter;stroke-miterlimit:5.58;stroke-dasharray:none;stroke-opacity:1;paint-order:normal"
           d="m 138.4307,131.26929 h -2.26799 l -0.79742,1.08939 h -0.756"
           id="path35-9-2-6" /><path
           id="rect4"
           style="fill:#213e66;fill-opacity:1;stroke-width:0.271312;stroke-linecap:square;stroke-miterlimit:5.58;paint-order:fill markers stroke"
           d="m 142.68363,132.76289 c 0,0.10004 -0.0805,0.18057 -0.18048,0.18057 h -3.69422 c -0.1,0 -0.18048,-0.0805 -0.18048,-0.18057 v -0.69747 c 0.71606,0.001 2.50703,0.005 4.05518,0.005 z" /></g></g></g></svg>
